<?xml version="1.0" encoding="utf-8"?>
<!-- Generator: Adobe Illustrator 19.0.0, SVG Export Plug-In . SVG Version: 6.00 Build 0)  -->
<svg version="1.1" id="Calque_1" xmlns="http://www.w3.org/2000/svg" xmlns:xlink="http://www.w3.org/1999/xlink" x="0px" y="0px"
	 viewBox="0 0 283.5 285.7" style="enable-background:new 0 0 283.5 285.7;" xml:space="preserve">
<style type="text/css">
	.st0{fill:#010202;}
</style>
<g id="XMLID_39_">
	<path id="XMLID_75_" class="st0" d="M181,265.5c-3.4-12.7,1.8-25.2,14.5-28.6c12.7-3.3,23.4,4.8,26.8,17.6
		c3.4,12.7-1.8,25.2-14.5,28.6C195.1,286.4,184.4,278.2,181,265.5 M176,260c0,14.2,11.5,25.7,25.7,25.7c14.2,0,25.7-11.5,25.7-25.7
		c0-14.2-11.5-25.7-25.7-25.7C187.5,234.4,176,245.8,176,260 M169.9,276.1c-3.4,5-9.6,7.7-16.5,7.7c-13.1,0-21.4-10.8-21.4-23.8
		c0-13,8.4-23.8,21.4-23.8c6.5,0,13.4,1.9,16.5,6.9h1.1v-4.8c-6-2.9-11.4-3.8-17.4-3.8c-14.2,0-25.8,11.5-25.8,25.7
		c0,14.2,11.7,25.7,25.8,25.7c6.3,0,13.3-2.2,17.3-4.8v-4.8H169.9z M119,243v-5.8c0,0-2.9-2.9-8.9-2.9c-7.7,0-12.3,5.1-12.3,11.1
		c0,4.8,1.7,9.3,9.6,15.2c8.5,6.3,11.1,9.8,11.1,14.2c0,5.3-4.1,8.9-10.4,8.9c-5.2,0-9.3-2.6-9.8-7.7H97v6.5c1,0.9,5.4,3.1,10.5,3.1
		c6.3,0,13.8-3.7,13.8-11.9c0-5.6-2.9-10.5-11.5-16.8c-7.1-5.1-9.4-8.1-9.4-12.3c0-4.1,2.9-8.5,8.6-8.5c4.7,0,8.6,2.8,9.1,6.8H119z
		 M44.2,265.5c-3.4-12.7,1.8-25.2,14.5-28.6c12.7-3.3,23.4,4.8,26.8,17.6c3.4,12.7-1.8,25.2-14.5,28.6
		C58.3,286.4,47.6,278.2,44.2,265.5 M39.2,260c0,14.2,11.5,25.7,25.7,25.7c14.2,0,25.7-11.5,25.7-25.7c0-14.2-11.5-25.7-25.7-25.7
		C50.7,234.4,39.2,245.8,39.2,260 M11.7,238.8c0-2.3,1.9-2.7,3.8-2.7c5.5,0,9,3.5,9,10c0,6.3-5.2,11-9.3,11h-2.1
		c-1,0-1.4-0.6-1.4-1.3L11.7,238.8z M15.2,259.1c8.3,0,13.7,5.4,13.7,12.4c0,7.1-5.1,12-11.1,12c-2.9,0-3.7-0.1-3.7-0.1
		c-2-0.3-2-0.9-2-3.1v-19.8c0-0.7,0.1-1.5,1.1-1.5H15.2z M8,280.7c0,3.5-4,3.9-4,3.9v0.7c0,0,3.1-0.4,5.9-0.4c3.9,0,4.9,0.4,8.2,0.4
		c8.1,0,14.7-5.7,14.7-13.8c0-7.8-6.2-13.2-14-13.5c3.8-0.6,9.8-4,9.8-11.7c0-7.6-6.4-11.5-12.4-11.5c-2.4,0-4.2,0.4-6.3,0.4
		C7.1,235,6,234.7,4,234.7v1.1c2,0,4,0.4,4,3.3V280.7z"/>
	<path id="XMLID_66_" class="st0" d="M177,207.2c-3.4-12.7,1.8-25.2,14.5-28.6c12.7-3.3,23.4,4.8,26.8,17.6
		c3.4,12.7-1.8,25.2-14.5,28.6C191.1,228.1,180.4,219.9,177,207.2 M172,201.7c0,14.2,11.5,25.7,25.7,25.7
		c14.2,0,25.7-11.5,25.7-25.7c0-14.2-11.5-25.7-25.7-25.7C183.5,176.1,172,187.5,172,201.7 M143.5,177.8c4.9,0,11.5,3.1,11.5,11.7
		c0,8.8-6.9,11.1-11.2,11.1c-2.1,0-2.7-0.7-2.7-2.2V180C141,178.4,142.1,177.8,143.5,177.8 M173,227v-1.5c-4,0-6.2-2.9-18.2-14.8
		c-7.1-7-8.4-8.6-8.4-8.6c6.8-0.4,12.8-4.7,12.8-12.7c0-10-7.4-13.1-14.1-13.1c-2.8,0-4.5,0.4-6.3,0.4c-2.6,0-3.9-0.4-5.9-0.4v1.1
		c2,0,4,0.4,4,2.5v42.4c0,3.2-2,3.6-4,3.6v1.1c2,0,3.6-0.4,6-0.4c2.5,0,5,0.4,6,0.4v-1.1c-1,0-4-0.4-4-3.6v-20.7
		c0,0,2.7,2.6,5.1,5.2l19,20.2H173z M125.8,218c-3.4,5-9.6,7.5-16.5,7.5c-13.1,0-21.4-10.9-21.4-23.9c0-13,8.4-23.6,21.4-23.6
		c6.5,0,13.4,2,16.5,7h0.3v-5.1c-5-2.9-11-3.8-17-3.8c-14.2,0-25.5,11.5-25.5,25.7c0,14.2,11.4,25.7,25.5,25.7c6.3,0,13-2.2,17-4.8
		V218H125.8z M53.6,184l8.1,19h-16L53.6,184z M30,227c1,0,3.4-0.4,5.6-0.4c2.5,0,4.4,0.4,6.4,0.4v-1.1c-2,0-4.3-0.6-3.6-2.7
		l6.5-18.2h17.6l7.1,18.2c0.9,2.1-1.6,2.7-3.6,2.7v1.1c2,0,3.9-0.4,7-0.4c3.1,0,5,0.4,7,0.4v-1.1c-2,0-4.4-0.4-5.4-2.5l-19.9-46.7
		c-3.3,0-7.7-0.4-8.7-0.4v1.1c1,0,4.9,0.1,6.3,4.3l-17.2,41.7c-0.9,2.1-4.1,2.5-5.1,2.5V227z M6,219v5.5c0,0,2.9,2.9,8.9,2.9
		c7.7,0,12.1-5.1,12.1-11.1c0-4.8-1.6-9.3-9.5-15.2c-8.5-6.3-11.8-9.8-11.8-14.2c0-5.3,4.1-9.3,11.8-9.3c6.6,0,11.5,4.4,12,8.4H31
		v-5.8c-2-0.6-6.7-4.1-13.3-4.1C9.9,176.1,3,179.8,3,188c0,5.6,3.6,10.5,12.2,16.8c7.1,5.1,9.2,8.1,9.2,12.3c0,4.1-2.7,8.3-8.5,8.3
		c-4.7,0-8.6-2.3-9.1-6.3H6z"/>
	<path id="XMLID_57_" class="st0" d="M230,145h53v-2h-53V145z M205,164.1c0,3.2-3,3.6-4,3.6v1.1c1,0,3.1-0.4,5.5-0.4
		c2.5,0,4.5,0.4,5.5,0.4v-1.1c-1,0-3-0.4-3-3.6v-44h13.1c2,0,3.1,0.8,1.4,4l0.9,1l3.7-7.9h-0.9c-0.9,1-2.1,1-4.3,1h-30.2
		c-2.6,0-1.7-1-1.7-1H190l-4.1,7.3l0.9,0.5c1.6-2.9,2.7-4.8,5.1-4.8H205V164.1z M182,126v-5.4c0,0-3-2.9-9-2.9
		c-7.7,0-12.3,5.1-12.3,11.1c0,4.8,1.7,9.3,9.6,15.2c8.5,6.3,11.1,9.8,11.1,14.2c0,5.3-4.1,9.2-10.4,9.2c-5.2,0-9.3-3.4-9.8-7.4H160
		v6c1,0.9,5.3,3.1,10.4,3.1c6.3,0,13.7-3.7,13.7-11.9c0-5.6-2.9-10.5-11.5-16.8c-7.1-5.1-9.4-8.1-9.4-12.3c0-4.1,2.9-8.7,8.6-8.7
		c4.7,0,8.6,3.6,9.1,6.6H182z M151,153v-30.3c0-3.5,4-3.9,4-3.9v-0.7c0,0-3.7,0.4-5.4,0.4c-1.9,0-5.6-0.4-5.6-0.4v0.7
		c0,0,4,0.4,4,3.8v30.7c0,3.5-4,3.9-4,3.9v0.7c0,0,3.7-0.4,5.4-0.4c1.9,0,5.6,0.4,5.6,0.4v-0.7c0,0-4-0.4-4-3.8 M118.7,119.5
		c4.6,0,10,3.8,10,11.7c0,8.5-6.8,11.5-9.7,11.5c-2.8,0-3-0.5-3-1.7v-19.5C116,119.9,117.3,119.5,118.7,119.5 M149,168v-0.4
		c-5,0-16.9-13.1-23.7-19.7c-2.5-2.4-4.3-4.1-4.3-4.1c5.3-0.9,11.5-5.3,11.5-12.6c0-9.7-6.4-13.1-13.3-13.1c-1.9,0-3.7,0.4-5.4,0.4
		c-2.6,0-5.9-0.4-5.9-0.4v0.7c0,0,4,0,4,2.6v42.6c0,3.5-4,3.9-4,3.9v0.7c0,0,4.2-0.4,5.9-0.4c1.9,0,6.1,0.4,6.1,0.4V168
		c0,0-4-0.4-4-3.8v-20.5c0,0,2.5,2.1,5,4.5l19.5,19.8H149z M61,164v-20h33v20c0,3.2-2,3.6-4,3.6v1.1c2,0,3.5-0.4,6-0.4
		c2.6,0,5,0.4,6,0.4v-1.1c-1,0-4-0.4-4-3.5v-41.4c0-3.2,3-3.6,4-3.6v-1.1c-1,0-3.5,0.4-5.9,0.4c-2.6,0-4.1-0.4-6.1-0.4v1.1
		c2,0,4,0.4,4,3.5V142H61v-19.3c0-3.2,3-3.6,4-3.6v-1.1c-1,0-3.6,0.4-6,0.4c-2.5,0-4-0.4-6-0.4v1.1c2,0,4,0.4,4,3.5v41.4
		c0,3.2-2,3.6-4,3.6v1.1c2,0,3.3-0.4,5.7-0.4c2.6,0,5.3,0.4,6.3,0.4v-1.1c-1,0-4-0.4-4-3.5 M45.7,160c-3.4,5-9.6,7.4-16.5,7.4
		c-13.1,0-21.4-11-21.4-23.9c0-13,8.4-24,21.4-24c6.5,0,13.4,2.6,16.5,6.6H46v-4.4c-5-2.9-11-3.8-17-3.8
		c-14.2,0-25.5,11.5-25.5,25.7c0,14.2,11.4,25.7,25.5,25.7c6.3,0,13-2.2,17-4.8V160H45.7z"/>
	<path id="XMLID_48_" class="st0" d="M236,106V86h33v19.8c0,3.2-3,3.6-4,3.6v1.1c1,0,3.5-0.4,6-0.4c2.6,0,4,0.4,6,0.4v-1.1
		c-2,0-4-0.4-4-3.5V64.4c0-3.2,2-3.6,4-3.6v-1.1c-2,0-3.5,0.4-5.9,0.4c-2.6,0-5.1-0.4-6.1-0.4v1.1c1,0,4,0.4,4,3.5V84h-33V64.4
		c0-3.2,2-3.6,3-3.6v-1.1c-1,0-3.1,0.4-5.5,0.4c-2.5,0-4.5-0.4-5.5-0.4v1.1c1,0,4,0.4,4,3.5v41.4c0,3.2-3,3.6-4,3.6v1.1
		c1,0,2.8-0.4,5.2-0.4c2.6,0,4.8,0.4,5.8,0.4v-1.1c-1,0-3-0.4-3-3.5 M200,105.8c0,3.2-2,3.6-4,3.6v1.1c2,0,3.6-0.4,6-0.4
		c2.5,0,4,0.4,6,0.4v-1.1c-2,0-4-0.4-4-3.6V62h13.5c2,0,3.1,0.6,1.4,3.8l0.9,0.5l3.7-8.4h-0.9c-0.9,2-2.1,2-4.3,2H188
		c-2.6,0-1.7-2-1.7-2h-0.9l-4.1,7.7l0.9,0.8c1.6-2.9,2.7-4.5,5.1-4.5H200V105.8z M131.4,90.6c-3.4-12.7,1.8-25.2,14.5-28.6
		c12.7-3.3,23.4,4.8,26.8,17.6c3.4,12.7-1.8,25.2-14.5,28.6C145.5,111.5,134.8,103.3,131.4,90.6 M126.4,85.1
		c0,14.2,11.5,25.7,25.7,25.7c14.2,0,25.7-11.5,25.7-25.7c0-14.2-11.5-25.7-25.7-25.7C137.9,59.5,126.4,70.9,126.4,85.1 M106.5,90.6
		C103,77.9,108.2,65.4,121,62c12.7-3.3,23.4,4.8,26.8,17.6c3.4,12.7-1.8,25.2-14.5,28.6C120.6,111.5,109.9,103.3,106.5,90.6
		 M101.5,85.1c0,14.2,11.5,25.7,25.7,25.7c14.2,0,25.7-11.5,25.7-25.7c0-14.2-11.5-25.7-25.7-25.7C112.9,59.5,101.5,70.9,101.5,85.1
		 M64.3,110L85,69.4v36.3c0,3.2-2,3.6-4,3.6v1.1c2,0,3.6-0.4,6-0.4c2.5,0,5,0.4,6,0.4v-1.1c-1,0-4-0.4-4-3.6V64.4c0-3.2,4-3.6,5-3.6
		v-1.1c-1,0-3.2,0.4-6.7,0.4c-2.9,0-5.3-0.4-6.3-0.4v1.1c1,0,3.9,0.4,3.9,2.4c0,3.4-20.2,41-20.2,41l-21.1-41
		c-1.1-2.1,2.4-2.5,3.4-2.5v-1.1c-1,0-3.4,0.4-6.9,0.4c-3.2,0-4.1-0.4-7.1-0.4v1.1c4,0,8,2,8,8.1v36.8c0,3.2-3,3.6-4,3.6v1.1
		c1,0,3.4-0.4,5-0.4c1.8,0,4,0.4,5,0.4v-1.1c-1,0-4-0.4-4-3.6V70.7L63.3,110H64.3z M25,68v-5.7c0,0-2.9-2.9-8.9-2.9
		c-7.7,0-12.3,5.1-12.3,11.1c0,4.8,1.7,9.3,9.6,15.2c8.5,6.3,11.1,9.8,11.1,14.2c0,5.3-4.1,8.8-10.4,8.8c-5.2,0-9.3-2.7-9.8-7.7H3
		v6.7c1,0.9,5.4,3.1,10.5,3.1c6.3,0,13.7-3.7,13.7-11.9c0-5.6-2.9-10.5-11.5-16.8c-7.1-5.1-9.4-8.1-9.4-12.3c0-4.1,2.9-8.5,8.6-8.5
		c4.7,0,8.6,2.8,9.1,6.8H25z"/>
	<path id="XMLID_42_" class="st0" d="M75.7,32.3C72.3,19.6,77.5,7.1,90.2,3.7c12.7-3.3,23.4,4.8,26.8,17.6
		c3.4,12.7-1.8,25.2-14.5,28.6C89.8,53.2,79.1,45,75.7,32.3 M70.7,26.8c0,14.2,11.5,25.7,25.7,25.7c14.2,0,25.7-11.5,25.7-25.7
		c0-14.2-11.5-25.7-25.7-25.7C82.2,1.2,70.7,12.6,70.7,26.8 M50.7,32.3C47.3,19.6,52.5,7.1,65.3,3.7C78,0.4,88.6,8.6,92.1,21.3
		c3.4,12.7-1.8,25.2-14.5,28.6C64.8,53.2,54.2,45,50.7,32.3 M45.7,26.8c0,14.2,11.5,25.7,25.7,25.7C85.6,52.5,97,41,97,26.8
		C97,12.6,85.6,1.2,71.4,1.2C57.2,1.2,45.7,12.6,45.7,26.8 M19,47.5c0,3.2-3,3.6-4,3.6v1.1c1,0,3.6-0.4,6-0.4c2.5,0,4,0.4,6,0.4
		v-1.1c-2,0-4-0.4-4-3.6V4h13.2c2,0,3.1,0.5,1.4,3.7l0.9,0.6L42.2,0h-0.9c-0.9,2-2.1,2-4.3,2H6.8C4.1,2,5.1,0,5.1,0H4.1L0,7.5
		l0.9,0.9C2.5,5.5,3.6,4,6,4h13V47.5z"/>
</g>
</svg>
